# xmcd
#
# Track frame offsets:
#	150
#	14585
#	28230
#	46537
#	60490
#	84270
#	98672
#	113367
#	130427
#	151770
#
# Disc length: 2226 seconds
#
# Revision: 2
# Processed by: cddbd v1.5.1PL0 Copyright (c) Steve Scherf et al.
# Submitted via: EasyCDDAExtractor 6.2.0.3
#
DISCID=6a08b00a
DTITLE=Sonny Landreth - Down In Louisiana
DYEAR=1993
DGENRE=Blues
TTITLE0=Ay Ai Ai
TTITLE1=Sugar Cane
TTITLE2=I Had A Dream
TTITLE3=Without My Baby
TTITLE4=Congo Square
TTITLE5=Checking Up On My Baby
TTITLE6=The Parish Line
TTITLE7=Little India
TTITLE8=If I Ever Get Lucky
TTITLE9=Everybody's Breakin' Everybody's Heart
EXTD=Epic (SONY Music)  EK 44065
EXTT0=
EXTT1=
EXTT2=
EXTT3=
EXTT4=
EXTT5=
EXTT6=
EXTT7=
EXTT8=
EXTT9=
PLAYORDER=
